<svg width="30" height="22" viewBox="0 0 30 22" fill="none" xmlns="http://www.w3.org/2000/svg">
<path d="M27.5462 0.788086H2.45382C1.80317 0.788787 1.17937 1.0476 0.719327 1.50772C0.259285 1.96785 0.000583904 2.59169 0 3.24235V18.7576C0.000700679 19.4082 0.259453 20.032 0.719482 20.492C1.17951 20.952 1.80324 21.2108 2.45382 21.2115H27.5462C28.1968 21.2108 28.8205 20.952 29.2805 20.492C29.7405 20.032 29.9993 19.4082 30 18.7576V3.24279C29.9995 2.59206 29.7409 1.9681 29.2808 1.50788C28.8208 1.04766 28.1969 0.788787 27.5462 0.788086ZM29.1176 18.7572C29.1172 19.1738 28.9515 19.5733 28.6569 19.8679C28.3623 20.1625 27.9628 20.3282 27.5462 20.3287H2.45382C2.03719 20.3282 1.63775 20.1625 1.34314 19.8679C1.04853 19.5733 0.88282 19.1738 0.882353 18.7572V3.24279C0.882586 2.826 1.0482 2.42634 1.34283 2.13154C1.63746 1.83674 2.03703 1.67091 2.45382 1.67044H27.5462C27.9629 1.67091 28.3624 1.83668 28.657 2.13138C28.9516 2.42609 29.1173 2.82564 29.1176 3.24235V18.7572Z" fill="white"/>
<path d="M28.4572 2.28836C28.3745 2.20565 28.2623 2.15919 28.1453 2.15919C28.0283 2.15919 27.9161 2.20565 27.8334 2.28836L16.5702 13.5525C16.364 13.7587 16.1193 13.9222 15.8499 14.0338C15.5805 14.1454 15.2918 14.2029 15.0002 14.2029C14.7087 14.2029 14.4199 14.1454 14.1506 14.0338C13.8812 13.9222 13.6365 13.7587 13.4303 13.5525L2.12427 2.24689C2.04106 2.16653 1.92962 2.12206 1.81395 2.12306C1.69827 2.12407 1.58762 2.17047 1.50582 2.25226C1.42402 2.33406 1.37763 2.44471 1.37662 2.56039C1.37562 2.67606 1.42008 2.78751 1.50045 2.87071L9.51927 10.8913L1.50045 18.9084C1.41767 18.9911 1.37114 19.1033 1.37109 19.2203C1.37105 19.3374 1.4175 19.4496 1.50023 19.5324C1.58295 19.6152 1.69517 19.6617 1.8122 19.6618C1.92923 19.6618 2.04149 19.6153 2.12427 19.5326L10.1431 11.5134L12.8065 14.1763C13.0945 14.4645 13.4365 14.693 13.8129 14.849C14.1893 15.0049 14.5928 15.0852 15.0002 15.0852C15.4077 15.0852 15.8111 15.0049 16.1875 14.849C16.5639 14.693 16.9059 14.4645 17.194 14.1763L19.8146 11.5553L27.8334 19.5745C27.9166 19.6549 28.028 19.6994 28.1437 19.6984C28.2594 19.6974 28.37 19.651 28.4518 19.5692C28.5336 19.4874 28.58 19.3767 28.581 19.261C28.582 19.1454 28.5376 19.0339 28.4572 18.9507L20.4384 10.9314L28.4572 2.91263C28.4982 2.87165 28.5308 2.823 28.553 2.76944C28.5752 2.71588 28.5866 2.65847 28.5866 2.60049C28.5866 2.54252 28.5752 2.48511 28.553 2.43155C28.5308 2.37799 28.4982 2.32933 28.4572 2.28836Z" fill="white"/>
<path d="M16.7706 10.7865C16.11 11.0662 15.3959 11.1972 14.679 11.1703C14.206 11.1841 13.7351 11.1012 13.2953 10.9265C12.8555 10.7518 12.456 10.4891 12.1213 10.1545C11.7867 9.81982 11.524 9.42033 11.3493 8.98051C11.1746 8.54068 11.0916 8.0698 11.1055 7.59676C11.0933 7.03119 11.1954 6.46897 11.4056 5.94378C11.6158 5.41858 11.9299 4.94121 12.3289 4.54025C12.728 4.13929 13.2039 3.82299 13.7281 3.61028C14.2523 3.39758 14.814 3.29284 15.3796 3.30235C17.3812 3.30235 18.8512 4.67 18.8512 6.57103C18.8512 8.21044 17.9353 9.27279 16.6453 9.27279C16.401 9.29761 16.1568 9.22466 15.9662 9.06988C15.7755 8.9151 15.6539 8.69111 15.628 8.44691H15.5962C15.4576 8.69481 15.2559 8.90172 15.0117 9.04673C14.7674 9.19175 14.4892 9.26973 14.2052 9.27279C13.4367 9.27279 12.9165 8.70765 12.9165 7.76971C12.9065 7.42245 12.968 7.07685 13.0973 6.75439C13.2266 6.43194 13.4208 6.13954 13.6679 5.89539C13.9151 5.65123 14.2098 5.46055 14.5338 5.3352C14.8578 5.20985 15.2041 5.15251 15.5512 5.16676C16.0334 5.15979 16.5115 5.25622 16.9533 5.44956L16.6365 7.56412C16.5456 8.14074 16.6026 8.41206 16.8964 8.42309C17.3376 8.44515 17.9256 7.89368 17.9256 6.59132C17.9256 5.18882 16.9992 4.07044 15.2565 4.07044C13.5606 4.07044 12.0686 5.37059 12.0686 7.47323C12.0686 9.37338 13.2673 10.3907 14.9517 10.3907C15.5069 10.3942 16.0569 10.2826 16.5668 10.0629L16.7706 10.7865ZM15.6059 6.20706C15.5214 6.1838 15.4341 6.17236 15.3465 6.17309C14.713 6.17309 14.2268 6.82868 14.2268 7.58485C14.2268 7.99206 14.3852 8.21838 14.702 8.21838C15.0187 8.21838 15.3915 7.82132 15.4705 7.18912L15.6059 6.20706Z" fill="white"/>
</svg>
