<svg width="37" height="33" viewBox="0 0 37 33" fill="none" xmlns="http://www.w3.org/2000/svg">
<path d="M31.3363 4.97504C30.7695 4.40961 30.4854 3.72158 30.4854 2.91241C30.4854 2.09995 30.7695 1.41229 31.3363 0.846862C31.9038 0.282897 32.5959 0 33.4104 0C34.1955 0 34.8784 0.282897 35.4606 0.846862C36.0414 1.41229 36.3332 2.09995 36.3332 2.91241C36.3332 3.72158 36.0414 4.40924 35.4606 4.97504C34.8784 5.53937 34.1955 5.82227 33.4104 5.82227C32.5959 5.8219 31.9038 5.539 31.3363 4.97504Z" fill="white"/>
<path d="M29.9528 18.7725C29.2409 17.9169 25.5958 14.0979 20.2202 12.2575L21.102 11.2394C22.7443 11.785 25.1385 13.0135 26.6305 14.0664L30.2943 9.82976C30.2943 9.82976 31.9906 7.69845 30.8633 5.90236C30.1127 4.7068 28.8542 4.55127 28.3304 4.55127L28.3238 4.55603C28.3076 4.55603 28.2926 4.55127 28.2768 4.55127H15.1505C14.2385 4.55127 13.499 5.28756 13.499 6.19549C13.499 7.10305 14.2385 7.83935 15.1505 7.83935H24.0528L21.0946 11.2456C19.4406 10.6744 17.5874 10.2861 15.6559 10.3468C14.5502 10.3823 13.5788 10.5803 12.6996 10.8672C11.5609 9.5165 10.9456 8.14528 10.9357 8.12332L9.80724 8.61333C9.84804 8.70592 10.4152 9.98016 11.4921 11.3408C10.6023 11.7415 9.80136 12.2084 9.05007 12.6549C8.30024 13.0999 7.59232 13.5207 6.92888 13.7912C2.98348 15.0764 1.45701 12.6436 1.39599 12.5433L0.333008 13.1614C0.352856 13.1954 2.39282 16.5603 7.35304 14.941C8.1433 14.6208 8.89018 14.1773 9.68117 13.7077C10.5236 13.2075 11.3811 12.6996 12.3416 12.3036C13.055 13.0296 13.9151 13.7067 14.9229 14.1582C15.9315 14.6102 16.9023 14.8989 17.7612 15.0856L14.4021 18.954H7.6776C7.12846 18.954 6.66497 19.126 6.28859 19.47C5.91294 19.8133 5.72401 20.2568 5.72401 20.8014C5.72401 21.3181 5.91404 21.7532 6.29263 22.1115C6.66864 22.4686 7.12111 22.6472 7.64562 22.6472H15.5438C15.8632 22.6472 16.1543 22.6194 16.4156 22.5609C17.0846 22.4456 17.5499 22.2425 17.8131 21.9526L21.5806 17.9092C21.5806 17.9092 25.222 19.5809 26.797 21.2716C29.6864 24.373 29.2416 30.4588 29.2365 30.5756C29.1986 31.3975 30.0025 32.5843 31.3007 32.4064C32.3887 32.2571 32.8393 31.2105 32.8393 30.2769C32.8393 30.2769 33.2146 22.6919 29.9528 18.7725ZM18.6934 14.0122C17.7634 13.8589 16.6189 13.5738 15.428 13.0406C14.7733 12.7471 14.1878 12.331 13.6681 11.8666C14.2911 11.7064 14.9571 11.5958 15.6959 11.5717C17.2728 11.5219 18.807 11.8125 20.2158 12.2578L18.6934 14.0122Z" fill="white"/>
</svg>
