<svg width="35" height="36" viewBox="0 0 35 36" fill="none" xmlns="http://www.w3.org/2000/svg">
<path d="M12.6163 10.0894H13.9767V12.5068C13.9766 12.5601 13.9909 12.6124 14.0178 12.6582C14.0448 12.7039 14.0836 12.7413 14.1299 12.7664C14.1763 12.7915 14.2285 12.8033 14.2809 12.8005C14.3334 12.7978 14.3841 12.7806 14.4277 12.7509L18.2948 10.0817H22.6054C22.9872 10.0817 23.3533 9.92787 23.6232 9.65399C23.8932 9.38011 24.0448 9.00865 24.0448 8.62133V1.45659C24.0438 1.06993 23.8917 0.699447 23.6219 0.426393C23.3521 0.153339 22.9865 -1.31796e-06 22.6054 0H12.6163C12.2345 0 11.8684 0.153863 11.5985 0.427742C11.3286 0.70162 11.1769 1.07308 11.1769 1.4604V8.63277C11.1779 9.01943 11.33 9.38991 11.5998 9.66297C11.8696 9.93602 12.2352 10.0894 12.6163 10.0894ZM19.877 4.27825C20.0257 4.27825 20.171 4.32298 20.2946 4.40678C20.4182 4.49057 20.5146 4.60968 20.5714 4.74903C20.6283 4.88838 20.6432 5.04171 20.6142 5.18964C20.5852 5.33758 20.5136 5.47346 20.4085 5.58012C20.3034 5.68677 20.1695 5.7594 20.0237 5.78883C19.8779 5.81825 19.7267 5.80315 19.5894 5.74543C19.452 5.68771 19.3347 5.58996 19.2521 5.46455C19.1695 5.33914 19.1254 5.1917 19.1254 5.04087C19.1254 4.83861 19.2046 4.64464 19.3455 4.50162C19.4865 4.3586 19.6777 4.27825 19.877 4.27825ZM17.6221 4.27825C17.7708 4.27825 17.9161 4.32298 18.0397 4.40678C18.1633 4.49057 18.2597 4.60968 18.3165 4.74903C18.3734 4.88838 18.3883 5.04171 18.3593 5.18964C18.3303 5.33758 18.2587 5.47346 18.1536 5.58012C18.0485 5.68677 17.9146 5.7594 17.7688 5.78883C17.623 5.81825 17.4718 5.80315 17.3345 5.74543C17.1972 5.68771 17.0798 5.58996 16.9972 5.46455C16.9146 5.33914 16.8705 5.1917 16.8705 5.04087C16.8705 4.84058 16.9481 4.64832 17.0866 4.50562C17.2252 4.36293 17.4135 4.28126 17.6109 4.27825H17.6221ZM15.3672 4.27825C15.5159 4.27825 15.6612 4.32298 15.7848 4.40678C15.9084 4.49057 16.0048 4.60968 16.0617 4.74903C16.1185 4.88838 16.1334 5.04171 16.1044 5.18964C16.0754 5.33758 16.0038 5.47346 15.8987 5.58012C15.7936 5.68677 15.6597 5.7594 15.5139 5.78883C15.3681 5.81825 15.2169 5.80315 15.0796 5.74543C14.9423 5.68771 14.8249 5.58996 14.7423 5.46455C14.6597 5.33914 14.6156 5.1917 14.6156 5.04087C14.6155 4.84251 14.6916 4.65193 14.8277 4.50955C14.9638 4.36717 15.1493 4.28421 15.3447 4.27825H15.3672ZM27.7691 26.9927C29.8726 28.1094 31.8617 29.4352 33.707 30.9506C33.9562 31.1608 34.1565 31.4244 34.2936 31.7223C34.4307 32.0203 34.5012 32.3453 34.5 32.6741V35.8428H26.1456L27.7691 26.9927ZM23.7028 12.728C24.9956 12.4573 26.3824 13.4906 26.6004 14.4744C26.6004 14.4744 29.2311 14.4744 28.2013 19.214C28.611 19.214 29.0544 19.4809 28.6034 21.09C28.2615 22.3102 27.9458 22.6534 27.7052 22.6725C27.6035 23.2745 27.396 23.8531 27.0927 24.3807V25.9059L23.7667 28.3577L25.0182 29.9745L24.1801 31.3434L24.834 35.8428H22.0117L22.6543 31.3434L21.8162 29.9745L23.0639 28.3615L19.7342 25.9288V24.4036C19.431 23.8759 19.2235 23.2974 19.1216 22.6953C18.8811 22.6763 18.5654 22.3331 18.2234 21.1129C17.7875 19.5419 18.1971 19.2331 18.5993 19.2331C18.3888 18.3141 17.8476 15.1302 20.1889 13.6813C20.05 13.5589 19.9392 13.4069 19.8645 13.2363C19.7898 13.0656 19.753 12.8804 19.7568 12.6937C19.7568 12.6937 22.41 13.0025 23.7028 12.728ZM20.6963 35.8428H0.5V32.9182C0.500851 32.6125 0.568742 32.311 0.698749 32.0353C0.828756 31.7596 1.01762 31.5167 1.25163 31.3243C3.11153 29.8058 5.12755 28.4954 7.26467 27.4159C7.2963 27.4002 7.32293 27.3758 7.34154 27.3454C7.36014 27.3151 7.36997 27.2801 7.3699 27.2443V25.231C7.08017 24.7327 6.88275 24.1847 6.78739 23.6143C6.56565 23.6143 6.27252 23.2787 5.95683 22.1463C5.52465 20.5982 5.98314 20.3694 6.37023 20.4075C6.29695 20.2002 6.24039 19.9873 6.20111 19.7707C6.04837 19.0996 6.04837 18.4019 6.20111 17.7307C6.38843 16.9374 6.78763 16.2117 7.35487 15.6336C7.6779 15.2849 8.04279 14.9787 8.44097 14.7222C8.76577 14.4897 9.12129 14.3048 9.49701 14.1731C9.80626 14.0657 10.1289 14.0028 10.4553 13.9863C11.2919 13.8931 12.1359 14.0735 12.8643 14.5011C13.343 14.7655 13.7418 15.1569 14.0181 15.6336C14.0181 15.6336 15.9648 15.7746 15.3071 19.7822C15.2678 19.9987 15.2112 20.2117 15.138 20.4189C15.5138 20.3808 15.9836 20.6096 15.5514 22.1577C15.2357 23.3016 14.9426 23.6067 14.7208 23.6257C14.6254 24.1902 14.4279 24.7318 14.1383 25.2234V27.2596C14.1383 27.2953 14.1481 27.3303 14.1667 27.3607C14.1853 27.391 14.2119 27.4154 14.2436 27.4312C14.5179 27.5684 15.3184 27.9764 16.3632 28.6056C17.4906 27.8735 18.4903 27.3244 19.0953 27.0041L20.6963 35.8428Z" fill="white"/>
</svg>
