<svg width="62" height="60" viewBox="0 0 62 60" fill="none" xmlns="http://www.w3.org/2000/svg">
<path d="M57 19.295V14C57 10.141 53.859 7 50 7C46.141 7 43 10.141 43 14C43 15.958 43.81 17.728 45.111 19H45C41.141 19 38 22.141 38 26V28H36.91C36.432 25.167 33.968 23 31 23C27.691 23 25 25.691 25 29C25 30.538 25.586 31.937 26.54 33H19.159L19 31.927V19H27C27.288 19 27.562 18.876 27.753 18.658L34.753 10.658C35.1 10.262 35.079 9.665 34.707 9.293L31.707 6.293C31.316 5.902 30.684 5.902 30.293 6.293L24.586 12H16.889C18.19 10.728 19 8.958 19 7V1C19 0.447 18.553 0 18 0H12C8.141 0 5 3.141 5 7C5 8.958 5.81 10.728 7.111 12H7C3.141 12 0 15.141 0 19V33C0 33.553 0.447 34 1 34H5V59C5 59.553 5.447 60 6 60H12C12.553 60 13 59.553 13 59V47.083L15.014 59.164C15.094 59.646 15.511 60 16 60H22C22.291 60 22.567 59.873 22.757 59.653C22.947 59.432 23.032 59.14 22.989 58.853L20.048 39H25V59C25 59.553 25.447 60 26 60H36C36.553 60 37 59.553 37 59V47H40C40.553 47 41 46.553 41 46V38C41 36.87 40.609 35.838 39.974 35H40C41.126 35 42.155 34.612 42.992 33.981L41.01 47.858C40.969 48.145 41.055 48.436 41.244 48.655C41.435 48.874 41.71 49 42 49H44V59C44 59.553 44.447 60 45 60H55C55.553 60 56 59.553 56 59V49H58C58.29 49 58.565 48.874 58.756 48.655C58.945 48.436 59.031 48.145 58.99 47.858L57.582 38H61C61.553 38 62 37.553 62 37V26C62 22.836 59.888 20.158 57 19.295ZM45 14C45 11.243 47.243 9 50 9C52.757 9 55 11.243 55 14V19H50C47.243 19 45 16.757 45 14ZM27 29C27 26.794 28.794 25 31 25C33.206 25 35 26.794 35 29C35 31.206 33.206 33 31 33C28.794 33 27 31.206 27 29ZM7 7C7 4.243 9.243 2 12 2H17V7C17 9.757 14.757 12 12 12C9.243 12 7 9.757 7 7ZM16.847 58L12.987 34.836C12.901 34.321 12.426 33.962 11.919 34.003C11.399 34.046 11 34.479 11 35V58H7V19H5V32H2V19C2 16.243 4.243 14 7 14H25C25.266 14 25.52 13.895 25.707 13.707L31 8.414L32.632 10.046L26.546 17H18C17.447 17 17 17.447 17 18V32C17 32.049 17.004 32.098 17.011 32.146L20.841 58H16.847ZM39 38V45H37V38H35V58H32V46H30V58H27V38C27 37.447 26.553 37 26 37H19.752L19.456 35H31H36C37.654 35 39 36.346 39 38ZM46 49H49V58H46V49ZM54 58H51V49H54V58ZM43.153 47L44.867 35H55.132L56.846 47H43.153ZM60 36H57.296L57 33.927V25H55V33H45V30V25H43V30C43 31.654 41.654 33 40 33H36H35.46C36.202 32.173 36.717 31.142 36.91 30H39C39.553 30 40 29.553 40 29V26C40 23.243 42.243 21 45 21H50H55C57.757 21 60 23.243 60 26V36Z" fill="url(#paint0_linear)"/>
<path d="M10 18H11V28H13V18H14V16H10V18Z" fill="url(#paint1_linear)"/>
<defs>
<linearGradient id="paint0_linear" x1="31" y1="0" x2="31" y2="60" gradientUnits="userSpaceOnUse">
<stop stop-color="#A53FA7"/>
<stop offset="1" stop-color="#E90E77" stop-opacity="0.72"/>
</linearGradient>
<linearGradient id="paint1_linear" x1="12" y1="16" x2="12" y2="28" gradientUnits="userSpaceOnUse">
<stop stop-color="#A53FA7"/>
<stop offset="1" stop-color="#E90E77" stop-opacity="0.72"/>
</linearGradient>
</defs>
</svg>
