<svg width="30" height="34" viewBox="0 0 30 34" fill="none" xmlns="http://www.w3.org/2000/svg">
<path d="M20.5249 9.32149C20.5249 6.34724 18.0819 3.92969 15.0767 3.92969C12.0714 3.92969 9.63184 6.34926 9.63184 9.32149C9.63184 12.2937 12.0741 14.7133 15.0767 14.7133C18.0792 14.7133 20.5249 12.2964 20.5249 9.32149ZM10.7107 9.32149C10.7107 6.94236 12.6707 5.00805 15.0794 5.00805C17.488 5.00805 19.4514 6.94438 19.4514 9.32149C19.4514 11.6986 17.4914 13.6349 15.0794 13.6349C12.6674 13.6349 10.7107 11.7013 10.7107 9.32149Z" fill="white"/>
<path d="M29.9832 32.8827L27.0795 19.4888C27.0452 19.3357 26.9598 19.199 26.8376 19.101C26.7153 19.003 26.5635 18.9496 26.4069 18.9496H20.3345L23.1555 13.5025C24.1583 11.5669 24.4536 9.36836 23.9868 7.31138C23.5913 5.54784 22.669 3.94687 21.3428 2.72161C19.7031 1.22001 17.5805 0.357382 15.3602 0.290354C13.1399 0.223327 10.9693 0.956349 9.2424 2.35632C6.03133 4.98482 5.04527 9.46136 6.8452 13.2437L9.5592 18.9496H3.58973C3.43318 18.9496 3.28129 19.003 3.15905 19.101C3.0368 19.199 2.95148 19.3357 2.91711 19.4888L0.0154469 32.8827C-0.00619771 32.9831 -0.00508247 33.087 0.0187101 33.1869C0.0425027 33.2868 0.0883657 33.38 0.152918 33.4598C0.217469 33.5395 0.299064 33.6037 0.391683 33.6477C0.484303 33.6916 0.585586 33.7142 0.688063 33.7137H29.3119C29.4144 33.7142 29.5157 33.6916 29.6083 33.6477C29.7009 33.6037 29.7825 33.5395 29.8471 33.4598C29.9116 33.38 29.9575 33.2868 29.9813 33.1869C30.0051 33.087 30.0062 32.9831 29.9846 32.8827H29.9832ZM9.92309 3.19002C11.4493 1.95448 13.3667 1.30777 15.3279 1.36712C17.289 1.42647 19.164 2.18795 20.613 3.51353C21.7787 4.59094 22.5891 5.99872 22.9362 7.5493C23.3465 9.35757 23.0849 11.2953 22.1963 13.0045L15.454 26.0304L15.4251 26.0863L15.4096 26.147C15.3738 26.2791 15.2966 26.3963 15.1894 26.4812C15.0822 26.5662 14.9506 26.6144 14.814 26.6187C14.6774 26.6231 14.543 26.5834 14.4306 26.5055C14.3181 26.4277 14.2336 26.3157 14.1895 26.1861L14.1787 26.1517L7.81645 12.7787C6.2311 9.44586 7.09743 5.50311 9.92309 3.19002ZM1.17033 32.6353L3.90115 20.0266H10.0697L13.1759 26.5547C13.2967 26.8957 13.522 27.1897 13.8195 27.3949C14.117 27.6 14.4715 27.7058 14.8325 27.6971C15.1935 27.6885 15.5426 27.5658 15.8299 27.3466C16.1173 27.1274 16.3282 26.8229 16.4327 26.4765L19.7749 20.0266H26.0975L28.8283 32.6353H1.17033Z" fill="white"/>
</svg>
