<svg width="43" height="43" viewBox="0 0 43 43" fill="none" xmlns="http://www.w3.org/2000/svg">
<path d="M38.1944 0H4.58333C3.36776 0 2.20197 0.483983 1.34243 1.34548C0.482885 2.20697 0 3.37541 0 4.59375L0 38.2812C0 39.4996 0.482885 40.668 1.34243 41.5295C2.20197 42.391 3.36776 42.875 4.58333 42.875H17.6888V28.2985H11.6732V21.4375H17.6888V16.2083C17.6888 10.2603 21.2218 6.97484 26.633 6.97484C29.2245 6.97484 31.9344 7.43805 31.9344 7.43805V13.2759H28.9485C26.0066 13.2759 25.089 15.1058 25.089 16.9825V21.4375H31.6565L30.6062 28.2985H25.089V42.875H38.1944C39.41 42.875 40.5758 42.391 41.4354 41.5295C42.2949 40.668 42.7778 39.4996 42.7778 38.2812V4.59375C42.7778 3.37541 42.2949 2.20697 41.4354 1.34548C40.5758 0.483983 39.41 0 38.1944 0Z" fill="white"/>
</svg>
