<svg width="30" height="30" viewBox="0 0 30 30" fill="none" xmlns="http://www.w3.org/2000/svg">
<path d="M26.0359 18.3544C25.3042 17.6227 24.3315 17.2197 23.2965 17.2197C22.2614 17.2197 21.2887 17.6227 20.557 18.3544L19.305 19.6068C18.6557 20.2558 17.6286 20.3381 16.8629 19.8024C15.5816 18.9064 14.3622 17.8824 13.2388 16.759C12.1161 15.6363 11.0921 14.4169 10.1954 13.1352C9.65972 12.3692 9.74238 11.3418 10.3914 10.6928L11.6434 9.44079C12.3751 8.7091 12.7781 7.73607 12.7781 6.70137C12.7781 5.66667 12.3751 4.69364 11.6434 3.96162L8.81402 1.13253C7.30398 -0.377512 4.8459 -0.377512 3.33519 1.13253L2.04549 2.42224C0.494105 3.97329 -0.243917 6.15069 0.071759 8.24642C0.515773 11.1942 1.61281 14.2066 3.24386 16.9567C4.41556 18.9431 5.85693 20.7975 7.52865 22.4692C9.20104 24.1419 11.0558 25.5833 13.0402 26.7536C15.7922 28.3857 18.8047 29.4831 21.7521 29.9267C22.0714 29.9751 22.3924 29.9984 22.7131 29.9984C24.4962 29.9984 26.2609 29.2681 27.5759 27.9527L28.8656 26.663C29.597 25.931 30 24.9583 30 23.9232C30 22.8882 29.597 21.9155 28.8653 21.1838L26.0359 18.3544ZM28.1583 25.9556L26.8686 27.2453C25.5405 28.573 23.6835 29.2064 21.9004 28.9374C19.0797 28.5127 16.1919 27.46 13.5488 25.8926C11.6361 24.7646 9.84839 23.3749 8.23534 21.7618C6.62329 20.1498 5.23358 18.3624 4.10388 16.4477C2.5375 13.8063 1.48514 10.9188 1.06012 8.09708C0.791447 6.31402 1.42413 4.45697 2.75217 3.12926L4.04188 1.83956C4.58523 1.29654 5.30692 0.997864 6.07461 0.997864C6.8423 0.997864 7.56399 1.29654 8.107 1.83956L10.9364 4.66864C11.4791 5.21166 11.7781 5.93335 11.7781 6.70137C11.7781 7.46906 11.4791 8.19075 10.9364 8.73377L9.68438 9.9858C8.69135 10.9788 8.56202 12.5442 9.37604 13.7082C10.3061 15.038 11.3681 16.3023 12.5318 17.466C13.6962 18.6304 14.9605 19.6924 16.2896 20.6221C17.4533 21.4358 19.0187 21.3068 20.012 20.3138L21.2641 19.0614C21.8071 18.5184 22.5288 18.2197 23.2965 18.2197C24.0642 18.2197 24.7858 18.5184 25.3289 19.0614L28.1583 21.8908C28.701 22.4338 29 23.1555 29 23.9232C29 24.6909 28.701 25.4126 28.1583 25.9556Z" fill="white"/>
</svg>
