<svg width="52" height="53" viewBox="0 0 52 53" fill="none" xmlns="http://www.w3.org/2000/svg">
<path d="M41.4011 18.3234C41.4011 16.9258 41.4011 15.5338 41.4011 14.1362C41.4011 13.6515 41.1279 13.1556 40.6803 12.9189C37.4135 11.1662 33.8503 10.0899 30.1476 9.68409C26.6019 9.29524 22.9457 9.61083 19.5162 10.5745C17.4991 11.1381 15.5461 11.9383 13.7092 12.9189C13.2617 13.1556 12.9885 13.6459 12.9885 14.1362C12.9885 15.5338 12.9885 16.9258 12.9885 18.3234C13.7151 17.9176 14.4475 17.5118 15.1741 17.1061C14.0754 16.5594 12.971 16.0128 11.8724 15.4718C10.1112 14.5983 8.3441 13.7248 6.58284 12.8513C6.18176 12.654 5.78069 12.4511 5.37379 12.2539C5.37379 13.0654 5.37379 13.8769 5.37379 14.6884C6.12364 14.3165 6.87348 13.9446 7.62913 13.5726C9.42527 12.6822 11.2156 11.7918 13.0117 10.907C15.1799 9.83062 17.348 8.75423 19.522 7.68348C21.3995 6.75361 23.2712 5.82375 25.1487 4.89389C26.0613 4.44305 26.9913 4.01475 27.8923 3.53572C27.9039 3.53009 27.9214 3.52445 27.933 3.51318C27.4447 3.51318 26.9564 3.51318 26.4682 3.51318C27.218 3.88513 27.9679 4.25707 28.7235 4.62902C30.5197 5.51943 32.31 6.40985 34.1061 7.29463C36.2743 8.37101 38.4424 9.4474 40.6164 10.5182C42.4939 11.448 44.3656 12.3779 46.2431 13.3077C47.1557 13.7586 48.0566 14.2432 48.9867 14.6659C48.9983 14.6715 49.0157 14.6772 49.0274 14.6884C49.0274 13.8769 49.0274 13.0654 49.0274 12.2539C47.9288 12.8005 46.8244 13.3472 45.7257 13.8882C43.9645 14.7617 42.1974 15.6352 40.4362 16.5087C40.0351 16.706 39.634 16.9088 39.2271 17.1061C38.547 17.4442 38.2971 18.4192 38.704 19.0334C39.1516 19.7041 39.9653 19.8957 40.6919 19.5406C41.7905 18.994 42.8949 18.4473 43.9935 17.9063C45.7548 17.0328 47.5219 16.1593 49.2831 15.2858C49.6842 15.0886 50.0853 14.8857 50.4922 14.6884C51.4397 14.2207 51.4397 12.7273 50.4922 12.2539C49.7423 11.882 48.9925 11.51 48.2368 11.1381C46.4349 10.242 44.6329 9.3516 42.831 8.45555C40.6454 7.37352 38.4598 6.28587 36.2743 5.20384C34.4026 4.27398 32.525 3.34412 30.6533 2.41989C29.7582 1.97468 28.8746 1.51257 27.9737 1.0899C27.4505 0.84194 26.9681 0.84194 26.4449 1.0899C26.3461 1.13499 26.2473 1.18571 26.1543 1.23643C25.6893 1.46748 25.2301 1.69291 24.7651 1.92396C23.0677 2.76366 21.3646 3.60899 19.6673 4.44868C17.4991 5.52507 15.3368 6.59582 13.1687 7.67221C11.204 8.64715 9.23926 9.61647 7.27456 10.5914C6.20501 11.1212 5.14129 11.6509 4.07174 12.1806C4.02524 12.2032 3.97293 12.2314 3.92643 12.2539C2.97895 12.7216 2.97895 14.2151 3.92643 14.6884C5.02503 15.2351 6.12945 15.7817 7.22806 16.3228C8.98931 17.1963 10.7564 18.0698 12.5176 18.9433C12.9187 19.1405 13.3198 19.3434 13.7267 19.5406C14.6916 20.0197 15.9123 19.4392 15.9123 18.3234C15.9123 16.9258 15.9123 15.5338 15.9123 14.1362C15.6739 14.5419 15.4298 14.9477 15.1915 15.3534C15.9704 14.9364 16.7667 14.5588 17.5805 14.2151C17.9118 14.0742 17.2841 14.3278 17.6212 14.1982C17.72 14.1587 17.8188 14.1193 17.9177 14.0854C18.0804 14.0235 18.2432 13.9615 18.4117 13.8995C18.8361 13.7473 19.272 13.6008 19.7022 13.4655C20.4985 13.2232 21.3123 13.0147 22.1261 12.8456C22.533 12.7611 22.9457 12.6878 23.3526 12.6202C23.556 12.5864 23.7653 12.5357 23.9687 12.53C23.5618 12.5469 23.9048 12.5357 23.992 12.53C24.1315 12.5131 24.2652 12.4962 24.4047 12.485C26.0555 12.3159 27.7237 12.2933 29.3804 12.4286C29.7872 12.4624 30.2174 12.4793 30.6185 12.5582C30.2116 12.485 30.5603 12.5526 30.6417 12.5638C30.7463 12.5808 30.8452 12.592 30.9498 12.6089C31.1881 12.6484 31.4264 12.6878 31.6706 12.7273C32.4902 12.8794 33.3039 13.0654 34.1061 13.2908C35.0187 13.5444 35.908 13.8544 36.7858 14.1982C37.1229 14.3278 36.4951 14.0742 36.8265 14.2151C36.9543 14.2714 37.088 14.3221 37.2159 14.3785C37.4426 14.4743 37.6693 14.5757 37.8902 14.6828C38.3378 14.8913 38.7795 15.1167 39.2155 15.3478C38.9772 14.942 38.733 14.5363 38.4947 14.1305C38.4947 15.5281 38.4947 16.9201 38.4947 18.3177C38.4947 19.056 39.1632 19.7604 39.9479 19.7266C40.7384 19.6984 41.4011 19.1123 41.4011 18.3234Z" fill="url(#paint0_linear)"/>
<path d="M38.4943 14.1417C38.4943 15.421 38.4943 16.6946 38.4943 17.9738C38.4943 20.0195 38.4943 22.0708 38.4943 24.1165C38.4943 24.5842 38.4943 25.052 38.4943 25.5197C38.9768 25.052 39.4651 24.5786 39.9475 24.1109C39.0989 24.1109 38.2502 24.1109 37.3957 24.1109C35.3729 24.1109 33.3559 24.1109 31.3331 24.1109C28.8685 24.1109 26.4097 24.1109 23.9451 24.1109C21.8234 24.1109 19.7018 24.1109 17.5801 24.1109C16.5513 24.1109 15.5108 24.0771 14.482 24.1109C14.4645 24.1109 14.4529 24.1109 14.4355 24.1109C14.9179 24.5786 15.4062 25.052 15.8886 25.5197C15.8886 24.2405 15.8886 22.9669 15.8886 21.6876C15.8886 19.6419 15.8886 17.5906 15.8886 15.5449C15.8886 15.0772 15.8886 14.6094 15.8886 14.1417C15.6503 14.5475 15.4062 14.9532 15.1679 15.359C15.9468 14.9419 16.7431 14.5644 17.5569 14.2206C17.8882 14.0797 17.2604 14.3333 17.5976 14.2037C17.6964 14.1642 17.7952 14.1248 17.894 14.091C18.0568 14.029 18.2195 13.967 18.3881 13.905C18.8124 13.7529 19.2484 13.6063 19.6785 13.4711C20.4749 13.2288 21.2887 13.0202 22.1024 12.8512C22.5093 12.7666 22.922 12.6934 23.3289 12.6258C23.5324 12.5919 23.7416 12.5412 23.9451 12.5356C23.5382 12.5525 23.8811 12.5412 23.9683 12.5356C24.1078 12.5187 24.2415 12.5018 24.381 12.4905C26.0318 12.3214 27.7001 12.2989 29.3567 12.4342C29.7636 12.468 30.1938 12.4849 30.5948 12.5638C30.1879 12.4905 30.5367 12.5581 30.6181 12.5694C30.7227 12.5863 30.8215 12.5976 30.9262 12.6145C31.1645 12.6539 31.4028 12.6934 31.6469 12.7328C32.4665 12.885 33.2803 13.071 34.0825 13.2964C34.9951 13.55 35.8844 13.8599 36.7621 14.2037C37.0993 14.3333 36.4715 14.0797 36.8028 14.2206C36.9307 14.277 37.0644 14.3277 37.1923 14.384C37.419 14.4798 37.6457 14.5813 37.8666 14.6883C38.3141 14.8969 38.7559 15.1223 39.1919 15.3533C39.8545 15.7084 40.8078 15.5337 41.1798 14.8461C41.5402 14.1868 41.3716 13.302 40.6567 12.9188C37.3899 11.1662 33.8267 10.0898 30.124 9.68404C26.5782 9.29519 22.922 9.61078 19.4925 10.5744C17.4755 11.138 15.5224 11.9382 13.6856 12.9188C13.238 13.1555 12.9648 13.6458 12.9648 14.1361C12.9648 15.4153 12.9648 16.6889 12.9648 17.9682C12.9648 20.0139 12.9648 22.0652 12.9648 24.1109C12.9648 24.5786 12.9648 25.0464 12.9648 25.5141C12.9648 26.2749 13.6333 26.923 14.418 26.923C15.2667 26.923 16.1153 26.923 16.9698 26.923C18.9926 26.923 21.0097 26.923 23.0325 26.923C25.4971 26.923 27.9559 26.923 30.4205 26.923C32.5421 26.923 34.6637 26.923 36.7854 26.923C37.8142 26.923 38.8489 26.9455 39.8836 26.923C39.901 26.923 39.9126 26.923 39.9301 26.923C40.7148 26.923 41.3833 26.2749 41.3833 25.5141C41.3833 24.2348 41.3833 22.9612 41.3833 21.682C41.3833 19.6363 41.3833 17.585 41.3833 15.5393C41.3833 15.0716 41.3833 14.6038 41.3833 14.1361C41.3833 13.3978 40.7148 12.6934 39.9301 12.7272C39.1628 12.7666 38.4943 13.3527 38.4943 14.1417Z" fill="url(#paint1_linear)"/>
<path d="M3.19336 13.4654C3.19336 15.5787 3.19336 17.6977 3.19336 19.811C3.19336 20.1097 3.19336 20.4084 3.19336 20.7127C3.19336 21.451 3.86182 22.1554 4.64654 22.1216C5.43125 22.0878 6.09972 21.5017 6.09972 20.7127C6.09972 18.5994 6.09972 16.4804 6.09972 14.3671C6.09972 14.0684 6.09972 13.7697 6.09972 13.4654C6.09972 12.7271 5.43125 12.0227 4.64654 12.0565C3.85601 12.0903 3.19336 12.6764 3.19336 13.4654Z" fill="url(#paint2_linear)"/>
<path d="M49.0848 41.3609C49.0848 43.1474 49.0848 44.9338 49.0848 46.7203C49.0848 47.7572 49.0848 48.7941 49.0848 49.8311C49.0848 50.034 49.0615 50.2481 49.0848 50.4453C49.0557 50.1861 49.3057 49.8142 49.5556 49.6789C49.5789 49.6676 49.9451 49.5268 49.9916 49.5718C49.9858 49.5662 49.9451 49.5718 49.9393 49.5718C49.1778 49.5268 48.4047 49.5718 47.6432 49.5718C45.9692 49.5718 44.3009 49.5718 42.6268 49.5718C40.3599 49.5718 38.0929 49.5718 35.8201 49.5718C33.2393 49.5718 30.6584 49.5718 28.0776 49.5718C25.4909 49.5718 22.9043 49.5718 20.3234 49.5718C18.039 49.5718 15.7604 49.5718 13.476 49.5718C11.7787 49.5718 10.0872 49.5718 8.38989 49.5718C7.59355 49.5718 6.79721 49.5493 6.00086 49.5718C5.97761 49.5718 5.95436 49.5718 5.93692 49.5718C6.31475 49.5324 6.92509 50.0058 6.83789 50.4566C6.87277 50.2988 6.83789 50.1072 6.83789 49.9438C6.83789 48.9407 6.83789 47.9376 6.83789 46.9401C6.83789 45.7228 6.83789 44.5055 6.83789 43.2826C6.83789 42.8431 6.83789 42.3979 6.83789 41.9583C6.83789 41.8231 6.83789 41.6878 6.83789 41.5526C6.83789 41.5131 6.86115 41.4004 6.83789 41.3666V41.3609C6.90183 41.7216 6.48332 42.133 6.15781 42.2175C4.99526 42.5106 5.87298 42.2401 5.93692 42.2457C5.95436 42.2457 5.97761 42.2457 5.99505 42.2457C6.08805 42.2514 6.18106 42.2457 6.27406 42.2457C6.66933 42.2457 7.05878 42.2457 7.45404 42.2457C8.93048 42.2457 10.4069 42.2457 11.8833 42.2457C14.034 42.2457 16.1848 42.2457 18.3297 42.2457C20.864 42.2457 23.3984 42.2457 25.9327 42.2457C28.5426 42.2457 31.1583 42.2457 33.7683 42.2457C36.1573 42.2457 38.5463 42.2457 40.9353 42.2457C42.7954 42.2457 44.6555 42.2457 46.5098 42.2457C47.5502 42.2457 48.5907 42.2457 49.6312 42.2457C49.7242 42.2457 49.823 42.2514 49.916 42.2457C49.9334 42.2457 49.9625 42.2514 49.9799 42.2457H49.9916C49.9916 42.2401 54.0256 42.8036 49.8753 42.2344C49.4277 42.1668 49.1138 41.7949 49.0848 41.3609C49.1429 42.0936 49.7126 42.8036 50.538 42.7698C51.2762 42.736 52.0493 42.1499 51.9911 41.3609C51.9098 40.2846 51.1367 39.4674 49.9974 39.428C49.9858 39.428 49.9741 39.428 49.9625 39.428C49.8869 39.428 49.8056 39.428 49.73 39.428C49.358 39.428 48.9802 39.428 48.6081 39.428C47.1259 39.428 45.6495 39.428 44.1672 39.428C41.9874 39.428 39.8019 39.428 37.6221 39.428C35.0412 39.428 32.4604 39.428 29.8737 39.428C27.2231 39.428 24.5783 39.428 21.9277 39.428C19.5213 39.428 17.109 39.428 14.7025 39.428C12.8483 39.428 10.9882 39.428 9.13392 39.428C8.14576 39.428 7.15759 39.428 6.16362 39.428C6.08805 39.428 6.0183 39.428 5.94273 39.428C4.82669 39.4618 3.95478 40.2733 3.92572 41.3666C3.90828 41.9978 3.92572 42.6289 3.92572 43.2601C3.92572 45.5087 3.92572 47.7516 3.92572 50.0001C3.92572 50.1805 3.91991 50.3552 3.93153 50.5355C3.99547 51.6006 4.87319 52.367 5.96017 52.3896C6.19849 52.3952 6.43682 52.3896 6.67514 52.3896C7.93069 52.3896 9.19205 52.3896 10.4476 52.3896C12.4879 52.3896 14.5281 52.3896 16.5684 52.3896C19.0737 52.3896 21.579 52.3896 24.0901 52.3896C26.7581 52.3896 29.4261 52.3896 32.0942 52.3896C34.5879 52.3896 37.0873 52.3896 39.581 52.3896C41.6038 52.3896 43.6325 52.3896 45.6553 52.3896C46.8818 52.3896 48.1024 52.3896 49.3289 52.3896C49.544 52.3896 49.7649 52.3952 49.9799 52.3896C51.096 52.367 51.9621 51.533 51.997 50.451C52.0028 50.2537 51.997 50.0565 51.997 49.8593C51.997 47.5938 51.997 45.3227 51.997 43.0572C51.997 42.4937 51.997 41.9301 51.997 41.3666C51.997 40.6283 51.3285 39.9239 50.5438 39.9577C49.7474 39.9859 49.0848 40.572 49.0848 41.3609Z" fill="url(#paint3_linear)"/>
<path d="M44.5804 32.8797C44.5804 34.6718 44.5804 36.4695 44.5804 38.2616C44.5804 38.7237 44.5804 39.1914 44.5804 39.6536C44.5804 39.8564 44.5513 40.0762 44.5804 40.2791C44.5222 39.8564 45.057 39.3492 45.4872 39.4C45.4697 39.4 45.4523 39.4 45.4348 39.4C45.3477 39.3943 45.2605 39.4 45.1733 39.4C44.2084 39.4 43.2434 39.4 42.2843 39.4C40.5405 39.4 38.8025 39.4 37.0587 39.4C34.8092 39.4 32.5597 39.4 30.3101 39.4C27.8223 39.4 25.3344 39.4 22.8524 39.4C20.3994 39.4 17.9465 39.4 15.4877 39.4C13.337 39.4 11.1805 39.4 9.02975 39.4C7.44868 39.4 5.86762 39.4 4.28656 39.4C3.54835 39.4 2.81013 39.3774 2.07191 39.4C2.05448 39.4 2.03122 39.4 2.00797 39.4C2.40324 39.3549 2.99032 39.8395 2.90895 40.2847C2.93801 40.11 2.90895 39.9015 2.90895 39.7212C2.90895 38.6843 2.90895 37.6473 2.90895 36.6104C2.90895 35.5678 2.90895 34.5196 2.90895 33.4771C2.90895 33.4432 2.92638 32.8853 2.90895 32.8853C2.96126 32.891 2.78688 33.3249 2.7985 33.308C2.64737 33.5334 2.30442 33.8152 1.99635 33.7645H2.00216C2.00797 33.7701 2.04866 33.7645 2.06029 33.7645C2.79269 33.7983 3.53091 33.7645 4.26331 33.7645C5.83856 33.7645 7.41962 33.7645 8.99487 33.7645C11.1456 33.7645 13.2963 33.7645 15.447 33.7645C17.9 33.7645 20.3529 33.7645 22.8059 33.7645C25.2821 33.7645 27.7583 33.7645 30.2404 33.7645C32.4899 33.7645 34.7452 33.7645 36.9948 33.7645C38.7386 33.7645 40.4882 33.7645 42.232 33.7645C43.2028 33.7645 44.1735 33.7645 45.1442 33.7645C45.2314 33.7645 45.3186 33.7701 45.4058 33.7645C45.4232 33.7645 45.4523 33.7701 45.4697 33.7645H45.4813C45.5046 33.7588 52.724 34.7676 45.3651 33.7532C44.9233 33.6856 44.6152 33.308 44.5804 32.8797C44.6385 33.6123 45.2081 34.3224 46.0336 34.2886C46.7718 34.2548 47.5449 33.6687 47.4867 32.8797C47.4054 31.8033 46.6323 30.9862 45.493 30.9467C45.4813 30.9467 45.4755 30.9467 45.4639 30.9467C45.3942 30.9467 45.3186 30.9467 45.2488 30.9467C44.9001 30.9467 44.5513 30.9467 44.2025 30.9467C42.8249 30.9467 41.4415 30.9467 40.0639 30.9467C38.0178 30.9467 35.9659 30.9467 33.9198 30.9467C31.4843 30.9467 29.0488 30.9467 26.6132 30.9467C24.0615 30.9467 21.5097 30.9467 18.9579 30.9467C16.5863 30.9467 14.2147 30.9467 11.8373 30.9467C9.93653 30.9467 8.03577 30.9467 6.1292 30.9467C4.96665 30.9467 3.80992 30.9467 2.64737 30.9467C2.43812 30.9467 2.22886 30.9411 2.0196 30.9467C0.903556 30.9693 0.0316471 31.7977 0.00258343 32.8797C-0.00322929 33.0713 0.00258343 33.2685 0.00258343 33.4601C0.00258343 35.5622 0.00258343 37.6642 0.00258343 39.7663C0.00258343 39.9635 -0.00322938 40.1664 0.00839607 40.3636C0.072336 41.4175 0.944245 42.2008 2.02541 42.2177C2.24629 42.2233 2.46137 42.2177 2.68225 42.2177C3.85061 42.2177 5.01896 42.2177 6.18732 42.2177C8.10552 42.2177 10.0237 42.2177 11.9361 42.2177C14.3019 42.2177 16.6735 42.2177 19.0393 42.2177C21.591 42.2177 24.1428 42.2177 26.6946 42.2177C29.136 42.2177 31.5773 42.2177 34.0187 42.2177C36.0589 42.2177 38.0992 42.2177 40.1395 42.2177C41.5054 42.2177 42.8772 42.2177 44.2432 42.2177C44.5804 42.2177 44.9233 42.2177 45.2605 42.2177C45.3302 42.2177 45.4 42.2177 45.4639 42.2177C46.5858 42.1839 47.4402 41.3667 47.4809 40.2791C47.5042 39.6085 47.4809 38.9322 47.4809 38.2616C47.4809 37.0725 47.4809 35.8834 47.4809 34.7C47.4809 34.0913 47.4809 33.4883 47.4809 32.8797C47.4809 32.1414 46.8125 31.437 46.0277 31.4708C45.243 31.5046 44.5804 32.0907 44.5804 32.8797Z" fill="url(#paint4_linear)"/>
<path d="M11.529 46.6866C11.5523 46.6866 11.5755 46.6866 11.5988 46.6922C11.4709 46.6753 11.343 46.6584 11.2151 46.6415C11.2267 46.6415 11.3488 46.6584 11.3488 46.6697C11.2733 46.6415 11.1977 46.6133 11.1221 46.5795C10.9303 46.4217 10.878 46.3823 10.9594 46.4612C11.0117 46.5119 10.9942 46.4894 10.907 46.3936C10.8489 46.3372 10.8082 46.2696 10.785 46.1963C10.6862 45.9653 10.7559 46.1569 10.7675 46.2189C10.7501 46.0949 10.7327 45.9709 10.7152 45.8469C10.721 45.892 10.721 45.9371 10.7152 45.9822C10.7327 45.8582 10.7501 45.7342 10.7675 45.6102C10.7675 45.6215 10.7501 45.7398 10.7385 45.7398C10.7675 45.6666 10.7966 45.5933 10.8315 45.52C10.9942 45.3341 11.0349 45.2833 10.9536 45.3622C10.9012 45.413 10.9245 45.3961 11.0233 45.3115C11.0814 45.2552 11.1512 45.2157 11.2267 45.1932C11.4651 45.0974 11.2674 45.165 11.2035 45.1763C11.3314 45.1594 11.4593 45.1425 11.5871 45.1255C11.5406 45.1312 11.4941 45.1312 11.4476 45.1255C11.5755 45.1425 11.7034 45.1594 11.8313 45.1763C11.8196 45.1763 11.6976 45.1594 11.6976 45.1481C11.7731 45.1763 11.8487 45.2044 11.9243 45.2383C12.1161 45.3961 12.1684 45.4355 12.087 45.3566C12.0347 45.3059 12.0522 45.3284 12.1393 45.4242C12.1975 45.4806 12.2382 45.5482 12.2614 45.6215C12.3602 45.8525 12.2905 45.6609 12.2789 45.5989C12.2963 45.7229 12.3137 45.8469 12.3312 45.9709C12.3254 45.9258 12.3254 45.8807 12.3312 45.8356C12.3137 45.9596 12.2963 46.0836 12.2789 46.2076C12.2789 46.1963 12.2963 46.078 12.3079 46.078C12.2789 46.1512 12.2498 46.2245 12.2149 46.2978C12.0522 46.4837 12.0115 46.5344 12.0928 46.4555C12.1452 46.4048 12.1219 46.4217 12.0231 46.5063C11.965 46.5626 11.8952 46.6021 11.8196 46.6246C11.5813 46.7204 11.779 46.6528 11.8429 46.6415C11.715 46.6584 11.5871 46.6753 11.4593 46.6922C11.4825 46.6866 11.5058 46.6866 11.529 46.6866C12.2847 46.6472 13.0171 46.0667 12.9822 45.2777C12.9473 44.5507 12.3428 43.8237 11.529 43.8688C10.3897 43.9308 9.4248 44.7592 9.4248 45.9089C9.4248 47.036 10.3897 47.9208 11.529 47.949C12.6683 47.9772 13.6042 47.0191 13.6332 45.9427C13.6448 45.4186 13.424 44.8607 13.0403 44.4887C12.6218 44.083 12.1103 43.897 11.529 43.8688C10.7675 43.8294 10.041 44.5451 10.0758 45.2777C10.1107 46.078 10.7152 46.6472 11.529 46.6866Z" fill="url(#paint5_linear)"/>
<path d="M44.3829 50.9809C44.3829 49.8426 44.3829 48.7042 44.3829 47.5658C44.3829 45.7399 44.3829 43.914 44.3829 42.088C44.3829 41.671 44.3829 41.254 44.3829 40.8369C44.3829 40.0987 43.7145 39.3942 42.9297 39.4281C42.145 39.4619 41.4766 40.048 41.4766 40.8369C41.4766 41.9753 41.4766 43.1137 41.4766 44.2521C41.4766 46.078 41.4766 47.9039 41.4766 49.7298C41.4766 50.1469 41.4766 50.5639 41.4766 50.9809C41.4766 51.7192 42.145 52.4236 42.9297 52.3898C43.7145 52.356 44.3829 51.7699 44.3829 50.9809Z" fill="url(#paint6_linear)"/>
<path d="M6.97754 32.3557C6.97754 34.824 6.97754 37.2866 6.97754 39.7549C6.97754 40.1099 6.97754 40.4593 6.97754 40.8144C6.97754 41.5526 7.646 42.257 8.43073 42.2232C9.21545 42.1894 9.88391 41.6033 9.88391 40.8144C9.88391 38.3461 9.88391 35.8834 9.88391 33.4151C9.88391 33.0601 9.88391 32.7107 9.88391 32.3557C9.88391 31.6175 9.21545 30.913 8.43073 30.9468C7.646 30.9807 6.97754 31.5667 6.97754 32.3557Z" fill="url(#paint7_linear)"/>
<path d="M40.5118 40.8088C40.5118 38.3405 40.5118 35.8777 40.5118 33.4094C40.5118 33.0543 40.5118 32.7049 40.5118 32.3499C40.5118 31.6116 39.8434 30.9072 39.0586 30.941C38.2739 30.9748 37.6055 31.5609 37.6055 32.3499C37.6055 34.8182 37.6055 37.281 37.6055 39.7493C37.6055 40.1044 37.6055 40.4538 37.6055 40.8088C37.6055 41.5471 38.2739 42.2515 39.0586 42.2177C39.8434 42.1839 40.5118 41.5978 40.5118 40.8088Z" fill="url(#paint8_linear)"/>
<defs>
<linearGradient id="paint0_linear" x1="27.2093" y1="0.903931" x2="27.2093" y2="19.7278" gradientUnits="userSpaceOnUse">
<stop stop-color="#A53FA7"/>
<stop offset="1" stop-color="#E90E77" stop-opacity="0.72"/>
</linearGradient>
<linearGradient id="paint1_linear" x1="27.174" y1="9.52185" x2="27.174" y2="26.933" gradientUnits="userSpaceOnUse">
<stop stop-color="#A53FA7"/>
<stop offset="1" stop-color="#E90E77" stop-opacity="0.72"/>
</linearGradient>
<linearGradient id="paint2_linear" x1="4.64654" y1="12.0553" x2="4.64654" y2="22.1228" gradientUnits="userSpaceOnUse">
<stop stop-color="#A53FA7"/>
<stop offset="1" stop-color="#E90E77" stop-opacity="0.72"/>
</linearGradient>
<linearGradient id="paint3_linear" x1="27.9588" y1="39.428" x2="27.9588" y2="52.3921" gradientUnits="userSpaceOnUse">
<stop stop-color="#A53FA7"/>
<stop offset="1" stop-color="#E90E77" stop-opacity="0.72"/>
</linearGradient>
<linearGradient id="paint4_linear" x1="24.3357" y1="30.9442" x2="24.3357" y2="42.2202" gradientUnits="userSpaceOnUse">
<stop stop-color="#A53FA7"/>
<stop offset="1" stop-color="#E90E77" stop-opacity="0.72"/>
</linearGradient>
<linearGradient id="paint5_linear" x1="11.5292" y1="43.8668" x2="11.5292" y2="47.9496" gradientUnits="userSpaceOnUse">
<stop stop-color="#A53FA7"/>
<stop offset="1" stop-color="#E90E77" stop-opacity="0.72"/>
</linearGradient>
<linearGradient id="paint6_linear" x1="42.9297" y1="39.4269" x2="42.9297" y2="52.391" gradientUnits="userSpaceOnUse">
<stop stop-color="#A53FA7"/>
<stop offset="1" stop-color="#E90E77" stop-opacity="0.72"/>
</linearGradient>
<linearGradient id="paint7_linear" x1="8.43073" y1="30.9457" x2="8.43073" y2="42.2244" gradientUnits="userSpaceOnUse">
<stop stop-color="#A53FA7"/>
<stop offset="1" stop-color="#E90E77" stop-opacity="0.72"/>
</linearGradient>
<linearGradient id="paint8_linear" x1="39.0586" y1="30.9398" x2="39.0586" y2="42.2189" gradientUnits="userSpaceOnUse">
<stop stop-color="#A53FA7"/>
<stop offset="1" stop-color="#E90E77" stop-opacity="0.72"/>
</linearGradient>
</defs>
</svg>
