<svg width="63" height="58" viewBox="0 0 63 58" fill="none" xmlns="http://www.w3.org/2000/svg">
<path d="M52.4794 48.5111H39.1166C38.9546 48.8351 38.7927 49.159 38.5497 49.483C37.4159 51.1027 35.5532 52.0745 33.5285 52.0745C32.3137 52.0745 31.0989 51.6696 30.1271 51.0217L22.4333 45.5956L19.6798 43.5709L19.4368 43.409C19.1129 43.166 19.0319 42.6801 19.1939 42.3561C19.4368 42.0322 19.9227 41.9512 20.2467 42.1132L24.0531 44.6238L31.0989 49.483C31.4229 49.7259 31.8278 49.8879 32.1517 50.0499C32.5567 50.2118 33.0426 50.2928 33.5285 50.2928C34.9053 50.2928 36.2011 49.6449 37.0919 48.4301C38.4687 46.4865 37.9018 43.8139 35.9581 42.5181L16.8452 29.3173C16.1164 28.8313 15.3065 28.5884 14.4156 28.5884H0V42.842H8.66558L27.8594 56.2859C28.5883 56.7718 29.3982 57.0957 30.289 57.0957H52.3984C54.747 57.0957 56.6907 55.152 56.6907 52.8034C56.7717 50.3738 54.828 48.5111 52.4794 48.5111Z" fill="url(#paint0_linear)"/>
<path d="M25.1867 15.6305L24.2148 31.5849L38.7925 23.9721L25.1867 15.6305Z" fill="url(#paint1_linear)"/>
<path d="M42.1912 33.4949L54.3115 41.8832L62.6998 29.7628L50.5795 21.3745L42.1912 33.4949Z" fill="#343ACE"/>
<path d="M14.1726 15.8734C18.1981 15.8734 21.4614 12.6101 21.4614 8.58458C21.4614 4.55909 18.1981 1.29578 14.1726 1.29578C10.1471 1.29578 6.88379 4.55909 6.88379 8.58458C6.88379 12.6101 10.1471 15.8734 14.1726 15.8734Z" fill="#ED5E5E"/>
<path d="M44.6239 5.02118L42.1133 0L39.6837 5.02118L34.0146 5.83105L38.064 9.7994L37.1731 15.3875L42.1133 12.7959L47.1345 15.3875L46.1627 9.7994L50.293 5.83105L44.6239 5.02118Z" fill="#DF14A6"/>
<defs>
<linearGradient id="paint0_linear" x1="28.3466" y1="28.5884" x2="28.3466" y2="57.0957" gradientUnits="userSpaceOnUse">
<stop stop-color="#A53FA7"/>
<stop offset="1" stop-color="#E90E77" stop-opacity="0.72"/>
</linearGradient>
<linearGradient id="paint1_linear" x1="31.5037" y1="15.6305" x2="31.5037" y2="31.5849" gradientUnits="userSpaceOnUse">
<stop stop-color="#F33A20"/>
<stop offset="1" stop-color="#E2F320" stop-opacity="0.97"/>
</linearGradient>
</defs>
</svg>
