<svg width="28" height="29" viewBox="0 0 28 29" fill="none" xmlns="http://www.w3.org/2000/svg">
<path d="M14.0621 0.446289C6.53669 0.446289 0.439453 6.63699 0.439453 14.2778C0.439453 21.9185 6.53669 28.1092 14.0621 28.1092C21.5875 28.1092 27.6848 21.9185 27.6848 14.2778C27.6848 6.63699 21.5875 0.446289 14.0621 0.446289ZM14.0621 25.4322C7.99233 25.4322 3.0761 20.4406 3.0761 14.2778C3.0761 8.11494 7.99233 3.12335 14.0621 3.12335C20.1319 3.12335 25.0481 8.11494 25.0481 14.2778C25.0481 20.4406 20.1319 25.4322 14.0621 25.4322ZM17.4568 19.6096L12.7932 16.1684C12.6229 16.0401 12.5241 15.8394 12.5241 15.6274V6.46967C12.5241 6.10157 12.8207 5.8004 13.1832 5.8004H14.941C15.3035 5.8004 15.6001 6.10157 15.6001 6.46967V14.3726L19.2695 17.0831C19.5661 17.3006 19.6265 17.7189 19.4123 18.0201L18.3796 19.4646C18.1654 19.7601 17.7534 19.8271 17.4568 19.6096Z" fill="black"/>
</svg>
