<svg width="792" height="792" viewBox="0 0 792 792" fill="none" xmlns="http://www.w3.org/2000/svg">
<path d="M792 396C792 614.705 614.705 792 396 792C177.295 792 0 614.705 0 396C0 177.295 177.295 0 396 0C614.705 0 792 177.295 792 396ZM28.3431 396C28.3431 599.051 192.949 763.657 396 763.657C599.051 763.657 763.657 599.051 763.657 396C763.657 192.949 599.051 28.3431 396 28.3431C192.949 28.3431 28.3431 192.949 28.3431 396Z" fill="white" fill-opacity="0.58"/>
<path d="M712.8 396C712.8 570.964 570.964 712.8 396 712.8C221.036 712.8 79.2002 570.964 79.2002 396C79.2002 221.036 221.036 79.2002 396 79.2002C570.964 79.2002 712.8 221.036 712.8 396ZM107.703 396C107.703 555.222 236.778 684.297 396 684.297C555.222 684.297 684.297 555.222 684.297 396C684.297 236.778 555.222 107.703 396 107.703C236.778 107.703 107.703 236.778 107.703 396Z" fill="white" fill-opacity="0.58"/>
<path d="M641 406C641 537.444 534.444 644 403 644C271.556 644 165 537.444 165 406C165 274.556 271.556 168 403 168C534.444 168 641 274.556 641 406ZM181.44 406C181.44 528.364 280.636 627.56 403 627.56C525.364 627.56 624.56 528.364 624.56 406C624.56 283.636 525.364 184.44 403 184.44C280.636 184.44 181.44 283.636 181.44 406Z" fill="white" fill-opacity="0.58"/>
</svg>
