<svg width="28" height="28" viewBox="0 0 28 28" fill="none" xmlns="http://www.w3.org/2000/svg">
<path d="M13.7886 0C6.17153 0 0 6.26613 0 14C0 21.7339 6.17153 28 13.7886 28C21.4058 28 27.5773 21.7339 27.5773 14C27.5773 6.26613 21.4058 0 13.7886 0ZM13.7886 25.2903C7.64491 25.2903 2.66877 20.2379 2.66877 14C2.66877 7.7621 7.64491 2.70968 13.7886 2.70968C19.9324 2.70968 24.9085 7.7621 24.9085 14C24.9085 20.2379 19.9324 25.2903 13.7886 25.2903ZM17.2247 19.3968L12.5043 15.9137C12.3319 15.7839 12.2319 15.5806 12.2319 15.3661V6.09677C12.2319 5.72419 12.5321 5.41935 12.8991 5.41935H14.6782C15.0452 5.41935 15.3454 5.72419 15.3454 6.09677V14.096L19.0595 16.8395C19.3597 17.0597 19.4209 17.4831 19.204 17.7879L18.1588 19.25C17.9419 19.5492 17.5249 19.6169 17.2247 19.3968Z" fill="black"/>
</svg>
