<svg width="39" height="39" viewBox="0 0 39 39" fill="none" xmlns="http://www.w3.org/2000/svg">
<mask id="mask0_765_243" style="mask-type:alpha" maskUnits="userSpaceOnUse" x="0" y="0" width="39" height="39">
<circle cx="19.5" cy="19.5" r="19.5" fill="#C4C4C4"/>
</mask>
<g mask="url(#mask0_765_243)">
<rect x="-9" width="29" height="13" fill="#2B2B2B"/>
<rect x="-9" y="13" width="29" height="13" fill="#C70203"/>
<rect x="-9" y="26" width="29" height="13" fill="#FDBD04"/>
<rect x="20" width="31" height="3" fill="#CF2B0C"/>
<rect x="20" y="3" width="31" height="3" fill="#F1F1F1"/>
<rect x="20" y="9" width="31" height="3" fill="#F1F1F1"/>
<rect x="20" y="15" width="31" height="3" fill="#F1F1F1"/>
<rect x="20" y="21" width="31" height="3" fill="#F1F1F1"/>
<rect x="20" y="27" width="31" height="3" fill="#F1F1F1"/>
<rect x="20" y="33" width="31" height="3" fill="#F1F1F1"/>
<rect x="20" y="6" width="31" height="3" fill="#CF2B0C"/>
<rect x="20" y="12" width="31" height="3" fill="#CF2B0C"/>
<rect x="20" y="18" width="31" height="3" fill="#CF2B0C"/>
<rect x="20" y="24" width="31" height="3" fill="#CF2B0C"/>
<rect x="20" y="30" width="31" height="3" fill="#CF2B0C"/>
<rect x="20" y="36" width="31" height="3" fill="#CF2B0C"/>
<rect x="20" width="11" height="21" fill="#2C5C8A"/>
<path d="M26 4L26.2245 4.69098H26.9511L26.3633 5.11803L26.5878 5.80902L26 5.38197L25.4122 5.80902L25.6367 5.11803L25.0489 4.69098H25.7755L26 4Z" fill="white"/>
<path d="M23 4L23.2245 4.69098H23.9511L23.3633 5.11803L23.5878 5.80902L23 5.38197L22.4122 5.80902L22.6367 5.11803L22.0489 4.69098H22.7755L23 4Z" fill="white"/>
<path d="M29 4L29.2245 4.69098H29.9511L29.3633 5.11803L29.5878 5.80902L29 5.38197L28.4122 5.80902L28.6367 5.11803L28.0489 4.69098H28.7755L29 4Z" fill="white"/>
<path d="M26 10L26.2245 10.691H26.9511L26.3633 11.118L26.5878 11.809L26 11.382L25.4122 11.809L25.6367 11.118L25.0489 10.691H25.7755L26 10Z" fill="white"/>
<path d="M23 10L23.2245 10.691H23.9511L23.3633 11.118L23.5878 11.809L23 11.382L22.4122 11.809L22.6367 11.118L22.0489 10.691H22.7755L23 10Z" fill="white"/>
<path d="M29 10L29.2245 10.691H29.9511L29.3633 11.118L29.5878 11.809L29 11.382L28.4122 11.809L28.6367 11.118L28.0489 10.691H28.7755L29 10Z" fill="white"/>
<path d="M26 16L26.2245 16.691H26.9511L26.3633 17.118L26.5878 17.809L26 17.382L25.4122 17.809L25.6367 17.118L25.0489 16.691H25.7755L26 16Z" fill="white"/>
<path d="M23 16L23.2245 16.691H23.9511L23.3633 17.118L23.5878 17.809L23 17.382L22.4122 17.809L22.6367 17.118L22.0489 16.691H22.7755L23 16Z" fill="white"/>
<path d="M29 16L29.2245 16.691H29.9511L29.3633 17.118L29.5878 17.809L29 17.382L28.4122 17.809L28.6367 17.118L28.0489 16.691H28.7755L29 16Z" fill="white"/>
<path d="M28 7L28.2245 7.69098H28.9511L28.3633 8.11803L28.5878 8.80902L28 8.38197L27.4122 8.80902L27.6367 8.11803L27.0489 7.69098H27.7755L28 7Z" fill="white"/>
<path d="M25 7L25.2245 7.69098H25.9511L25.3633 8.11803L25.5878 8.80902L25 8.38197L24.4122 8.80902L24.6367 8.11803L24.0489 7.69098H24.7755L25 7Z" fill="white"/>
<path d="M22 7L22.2245 7.69098H22.9511L22.3633 8.11803L22.5878 8.80902L22 8.38197L21.4122 8.80902L21.6367 8.11803L21.0489 7.69098H21.7755L22 7Z" fill="white"/>
<path d="M28 13L28.2245 13.691H28.9511L28.3633 14.118L28.5878 14.809L28 14.382L27.4122 14.809L27.6367 14.118L27.0489 13.691H27.7755L28 13Z" fill="white"/>
<path d="M25 13L25.2245 13.691H25.9511L25.3633 14.118L25.5878 14.809L25 14.382L24.4122 14.809L24.6367 14.118L24.0489 13.691H24.7755L25 13Z" fill="white"/>
<path d="M22 13L22.2245 13.691H22.9511L22.3633 14.118L22.5878 14.809L22 14.382L21.4122 14.809L21.6367 14.118L21.0489 13.691H21.7755L22 13Z" fill="white"/>
<path d="M28 19L28.2245 19.691H28.9511L28.3633 20.118L28.5878 20.809L28 20.382L27.4122 20.809L27.6367 20.118L27.0489 19.691H27.7755L28 19Z" fill="white"/>
<path d="M25 19L25.2245 19.691H25.9511L25.3633 20.118L25.5878 20.809L25 20.382L24.4122 20.809L24.6367 20.118L24.0489 19.691H24.7755L25 19Z" fill="white"/>
<path d="M22 19L22.2245 19.691H22.9511L22.3633 20.118L22.5878 20.809L22 20.382L21.4122 20.809L21.6367 20.118L21.0489 19.691H21.7755L22 19Z" fill="white"/>
<path d="M22 1L22.2245 1.69098H22.9511L22.3633 2.11803L22.5878 2.80902L22 2.38197L21.4122 2.80902L21.6367 2.11803L21.0489 1.69098H21.7755L22 1Z" fill="white"/>
<path d="M25 1L25.2245 1.69098H25.9511L25.3633 2.11803L25.5878 2.80902L25 2.38197L24.4122 2.80902L24.6367 2.11803L24.0489 1.69098H24.7755L25 1Z" fill="white"/>
<path d="M28 1L28.2245 1.69098H28.9511L28.3633 2.11803L28.5878 2.80902L28 2.38197L27.4122 2.80902L27.6367 2.11803L27.0489 1.69098H27.7755L28 1Z" fill="white"/>
<path d="M31 1L31.2245 1.69098H31.9511L31.3633 2.11803L31.5878 2.80902L31 2.38197L30.4122 2.80902L30.6367 2.11803L30.0489 1.69098H30.7755L31 1Z" fill="white"/>
</g>
</svg>
