<?xml version="1.0" standalone="no"?>
<!DOCTYPE svg PUBLIC "-//W3C//DTD SVG 20010904//EN"
 "http://www.w3.org/TR/2001/REC-SVG-20010904/DTD/svg10.dtd">
<svg version="1.0" xmlns="http://www.w3.org/2000/svg"
 width="209.000000pt" height="209.000000pt" viewBox="0 0 209.000000 209.000000"
 preserveAspectRatio="xMidYMid meet">
<metadata>
Created by potrace 1.14, written by Peter Selinger 2001-2017
</metadata>
<g transform="translate(0.000000,209.000000) scale(0.100000,-0.100000)"
fill="#000000" stroke="none">
<path d="M848 2070 c-120 -25 -179 -45 -278 -96 -266 -137 -458 -377 -537
-669 -23 -89 -26 -118 -27 -260 0 -142 3 -171 27 -260 99 -368 387 -657 747
-749 84 -22 116 -24 274 -24 219 1 304 20 473 107 206 105 405 321 481 521 24
62 52 151 58 183 4 18 8 43 11 57 12 60 10 279 -2 345 -43 225 -146 417 -304
568 -139 132 -288 216 -469 264 -130 34 -326 39 -454 13z"/>
</g>
</svg>
