<svg width="40" height="41" viewBox="0 0 40 41" fill="none" xmlns="http://www.w3.org/2000/svg">
<path d="M32.4085 10.0205C32.4282 10.1298 32.4396 10.2405 32.4426 10.3515C32.4432 10.5762 32.3992 10.7988 32.313 11.0063C32.2268 11.2138 32.1001 11.402 31.9404 11.5601C31.8637 11.6404 31.778 11.7118 31.6851 11.7728C31.5907 11.8331 31.491 11.8846 31.3872 11.9269C31.2866 11.971 31.1808 12.0021 31.0723 12.0196C30.9634 12.044 30.852 12.0554 30.7404 12.0537C30.5162 12.0507 30.2943 12.0078 30.0851 11.9269C29.9841 11.8845 29.8873 11.833 29.7957 11.7728C29.7015 11.71 29.6132 11.6388 29.5319 11.5601C29.215 11.2377 29.0376 10.8036 29.0383 10.3515C29.037 10.2403 29.0484 10.1292 29.0723 10.0205C29.0905 9.91208 29.122 9.80632 29.166 9.70558C29.2079 9.60188 29.2592 9.50219 29.3192 9.40771C29.383 9.31697 29.4542 9.23158 29.5319 9.15239C29.6135 9.07391 29.7018 9.00271 29.7957 8.93963C29.8873 8.87976 29.9841 8.82847 30.0851 8.78644C30.1898 8.74372 30.2976 8.70928 30.4077 8.68346C30.6819 8.63049 30.9649 8.64554 31.232 8.72729C31.499 8.80904 31.742 8.955 31.9396 9.15239C32.0195 9.22958 32.0908 9.31518 32.1523 9.40771C32.2147 9.50219 32.2688 9.60184 32.314 9.70558C32.3545 9.80766 32.3861 9.91301 32.4085 10.0205ZM29.3106 20.4375C29.3106 22.279 28.7646 24.0791 27.7415 25.6102C26.7184 27.1413 25.2643 28.3347 23.563 29.0394C21.8617 29.7441 19.9897 29.9285 18.1836 29.5692C16.3775 29.21 14.7185 28.3232 13.4164 27.0211C12.1143 25.719 11.2275 24.06 10.8683 22.2539C10.509 20.4478 10.6934 18.5758 11.3981 16.8745C12.1028 15.1732 13.2962 13.7191 14.8273 12.696C16.3584 11.6729 18.1585 11.1269 20 11.1269C22.4683 11.1302 24.8345 12.1123 26.5799 13.8576C28.3252 15.603 29.3073 17.9692 29.3106 20.4375ZM21.2766 14.1056C21.2728 13.7682 21.1371 13.4457 20.8985 13.2071C20.6599 12.9685 20.3374 12.8327 20 12.829C18.5831 12.8267 17.194 13.2218 15.9904 13.9695C14.7869 14.7172 13.8172 15.7875 13.1915 17.0588C13.0657 17.312 13.0275 17.5998 13.083 17.8771C13.1384 18.1543 13.2844 18.4053 13.4979 18.5907C13.5789 18.6599 13.6674 18.7198 13.7617 18.7694C13.9379 18.8603 14.1336 18.9071 14.3319 18.9056C14.5691 18.9066 14.8018 18.841 15.0035 18.7161C15.2052 18.5912 15.3676 18.412 15.4723 18.1992C15.8869 17.3523 16.5313 16.639 17.3319 16.1409C18.1325 15.6428 19.0571 15.3799 20 15.3822C20.3386 15.3822 20.6633 15.2477 20.9027 15.0083C21.1421 14.7689 21.2766 14.4442 21.2766 14.1056ZM40 14.4801V26.3949C39.9957 30.118 38.5149 33.6872 35.8823 36.3198C33.2497 38.9524 29.6805 40.4332 25.9574 40.4375H14.0426C10.3196 40.4332 6.75026 38.9524 4.1177 36.3198C1.48513 33.6872 0.00427971 30.118 0 26.3949V14.4801C0.00427971 10.7571 1.48513 7.18776 4.1177 4.5552C6.75026 1.92263 10.3196 0.44178 14.0426 0.4375H25.9574C29.6805 0.44178 33.2497 1.92263 35.8823 4.5552C38.5149 7.18776 39.9957 10.7571 40 14.4801ZM37.4468 14.4801C37.4434 11.4339 36.2319 8.51352 34.0779 6.35958C31.924 4.20564 29.0036 2.99407 25.9574 2.99069H14.0426C10.9964 2.99407 8.07602 4.20564 5.92208 6.35958C3.76814 8.51352 2.55657 11.4339 2.55319 14.4801V26.3949C2.55657 29.4411 3.76814 32.3615 5.92208 34.5154C8.07602 36.6694 10.9964 37.8809 14.0426 37.8843H25.9574C29.0036 37.8809 31.924 36.6694 34.0779 34.5154C36.2319 32.3615 37.4434 29.4411 37.4468 26.3949V14.4801Z" fill="white"/>
</svg>
